# xmcd
#
# Track frame offsets:
#	150
#	12696
#	24642
#	37467
#	49643
#	66710
#	79346
#	90394
#	100070
#	111257
#	125475
#	140208
#
# Disc length: 2010 seconds
#
# Revision: 0
# Processed by: cddbd v1.4PL0 Copyright (c) Steve Scherf et al.
# Submitted via: MusicWizard 6.0.0
#
DISCID=b407d80c
DTITLE=Johnny Cash - Destination Victoria Station
DYEAR=2002
DGENRE=Country
TTITLE0=Casey Jones
TTITLE1=Hey Porter
TTITLE2=John Henry
TTITLE3=Wabash Cannonball
TTITLE4=City Of New Orleans
TTITLE5=Folsom Prison Blues
TTITLE6=Crystal Chandeliers And Burgundy
TTITLE7=Wreck Of The Old 97
TTITLE8=Waiting For A Train
TTITLE9=Orange Blossom Special
TTITLE10=Texas 1947
TTITLE11=Destination Victoria Station
EXTD=Columbia Special Products
EXTT0=
EXTT1=
EXTT2=
EXTT3=
EXTT4=
EXTT5=
EXTT6=
EXTT7=
EXTT8=
EXTT9=
EXTT10=
EXTT11=
PLAYORDER=
